<svg xmlns="http://www.w3.org/2000/svg" width="538" height="478.222" viewBox="0 0 538 478.222">
  <path id="Icon_awesome-map-marked-alt" data-name="Icon awesome-map-marked-alt" d="M269,0A117.685,117.685,0,0,0,151.313,117.688c0,52.548,76.917,148.324,106.386,183.088a14.732,14.732,0,0,0,22.6,0c29.469-34.765,106.386-130.54,106.386-183.088A117.685,117.685,0,0,0,269,0Zm0,156.917a39.229,39.229,0,1,1,39.229-39.229A39.224,39.224,0,0,1,269,156.917ZM18.793,201.7A29.894,29.894,0,0,0,0,229.453V463.259a14.946,14.946,0,0,0,20.493,13.88l128.952-58.694v-217.7A282.857,282.857,0,0,1,129.6,157.384ZM269,335.942A44.628,44.628,0,0,1,234.9,320.1c-18.363-21.669-37.894-46.346-55.565-71.659V418.435l179.333,59.778V248.451c-17.672,25.3-37.193,49.989-55.565,71.659A44.65,44.65,0,0,1,269,335.942ZM517.507,150.528,388.556,209.222v269l130.652-52.259A29.885,29.885,0,0,0,538,398.213V164.408A14.946,14.946,0,0,0,517.507,150.528Z" fill="#f5f5f5"/>
</svg>
