<svg xmlns="http://www.w3.org/2000/svg" width="538" height="538" viewBox="0 0 538 538">
  <path id="Icon_material-shopping-cart" data-name="Icon material-shopping-cart" d="M162.9,433.4a53.8,53.8,0,1,0,53.8,53.8A53.728,53.728,0,0,0,162.9,433.4ZM1.5,3V56.8H55.3l96.84,204.171-36.315,65.9A52.01,52.01,0,0,0,109.1,352.7a53.958,53.958,0,0,0,53.8,53.8H485.7V352.7H174.2a6.66,6.66,0,0,1-6.725-6.725l.807-3.228L192.49,298.9H392.9a53.545,53.545,0,0,0,47.075-27.707l96.3-174.581A26.281,26.281,0,0,0,539.5,83.7a26.979,26.979,0,0,0-26.9-26.9H114.749L89.463,3ZM431.9,433.4a53.8,53.8,0,1,0,53.8,53.8A53.728,53.728,0,0,0,431.9,433.4Z" transform="translate(-1.5 -3)" fill="#f5f5f5"/>
</svg>
