<svg xmlns="http://www.w3.org/2000/svg" width="538" height="358.667" viewBox="0 0 538 358.667">
  <path id="Icon_awesome-newspaper" data-name="Icon awesome-newspaper" d="M515.583,4.5H82.194A22.416,22.416,0,0,0,59.778,26.917v7.472H22.417A22.416,22.416,0,0,0,0,56.806V310.861a52.305,52.305,0,0,0,52.306,52.306H493.167A44.833,44.833,0,0,0,538,318.333V26.917A22.416,22.416,0,0,0,515.583,4.5ZM52.306,318.333a7.472,7.472,0,0,1-7.472-7.472V79.222H59.778V310.861A7.472,7.472,0,0,1,52.306,318.333Zm220.431-14.944H130.764a11.209,11.209,0,0,1-11.208-11.208v-7.472A11.209,11.209,0,0,1,130.764,273.5H272.736a11.209,11.209,0,0,1,11.208,11.208v7.472A11.209,11.209,0,0,1,272.736,303.389Zm194.278,0H325.042a11.209,11.209,0,0,1-11.208-11.208v-7.472A11.209,11.209,0,0,1,325.042,273.5H467.014a11.209,11.209,0,0,1,11.208,11.208v7.472A11.209,11.209,0,0,1,467.014,303.389ZM272.736,213.722H130.764a11.209,11.209,0,0,1-11.208-11.208v-7.472a11.209,11.209,0,0,1,11.208-11.208H272.736a11.209,11.209,0,0,1,11.208,11.208v7.472A11.209,11.209,0,0,1,272.736,213.722Zm194.278,0H325.042a11.209,11.209,0,0,1-11.208-11.208v-7.472a11.209,11.209,0,0,1,11.208-11.208H467.014a11.209,11.209,0,0,1,11.208,11.208v7.472A11.209,11.209,0,0,1,467.014,213.722Zm0-89.667H130.764a11.209,11.209,0,0,1-11.208-11.208V75.486a11.209,11.209,0,0,1,11.208-11.208h336.25a11.209,11.209,0,0,1,11.208,11.208v37.361A11.209,11.209,0,0,1,467.014,124.056Z" transform="translate(0 -4.5)" fill="#f5f5f5"/>
</svg>
